<?xml version="1.0" encoding="UTF-8" standalone="no"?>
<svg
   xmlns:dc="http://purl.org/dc/elements/1.1/"
   xmlns:cc="http://creativecommons.org/ns#"
   xmlns:rdf="http://www.w3.org/1999/02/22-rdf-syntax-ns#"
   xmlns:svg="http://www.w3.org/2000/svg"
   xmlns="http://www.w3.org/2000/svg"
   xmlns:sodipodi="http://sodipodi.sourceforge.net/DTD/sodipodi-0.dtd"
   xmlns:inkscape="http://www.inkscape.org/namespaces/inkscape"
   viewBox="0 0 1984.5412 1374.1522"
   height="1374.1522"
   width="1984.5413"
   xml:space="preserve"
   id="svg2"
   version="1.1"
   sodipodi:docname="FFL_ohneText.svg"
   inkscape:version="0.92.5 (2060ec1f9f, 2020-04-08)"><sodipodi:namedview
     pagecolor="#ffffff"
     bordercolor="#666666"
     borderopacity="1"
     objecttolerance="10"
     gridtolerance="10"
     guidetolerance="10"
     inkscape:pageopacity="0"
     inkscape:pageshadow="2"
     inkscape:window-width="1920"
     inkscape:window-height="1028"
     id="namedview14"
     showgrid="false"
     showborder="false"
     inkscape:snap-intersection-paths="false"
     inkscape:object-paths="true"
     inkscape:snap-global="false"
     inkscape:zoom="0.32"
     inkscape:cx="704.40358"
     inkscape:cy="620.25735"
     inkscape:window-x="0"
     inkscape:window-y="0"
     inkscape:window-maximized="1"
     inkscape:current-layer="layer2"
     fit-margin-top="0"
     fit-margin-left="0"
     fit-margin-right="0"
     fit-margin-bottom="0" /><metadata
     id="metadata8"><rdf:RDF><cc:Work
         rdf:about=""><dc:format>image/svg+xml</dc:format><dc:type
           rdf:resource="http://purl.org/dc/dcmitype/StillImage" /><dc:title></dc:title></cc:Work></rdf:RDF></metadata><defs
     id="defs6"><clipPath
       clipPathUnits="userSpaceOnUse"
       id="clipPath5551"><path
         id="path5553"
         style="fill:none;stroke:#dc0067;stroke-width:20.11874008;stroke-linecap:butt;stroke-linejoin:miter;stroke-miterlimit:3.8636899;stroke-dasharray:none;stroke-opacity:1"
         d="m 7461.3956,-1297.8492 c 0,-238.6578 192.656,-432.1239 430.3135,-432.1239 237.6575,0 430.309,193.4661 430.309,432.1239 0,238.6577 -192.6515,432.12385 -430.309,432.12385 -237.6575,0 -430.3135,-193.46615 -430.3135,-432.12385 z"
         inkscape:connector-curvature="0" /></clipPath><clipPath
       clipPathUnits="userSpaceOnUse"
       id="clipPath5714"><path
         inkscape:connector-curvature="0"
         d="m 7288.6911,-1418.1359 c 0,-208.6187 168.407,-377.7338 376.1512,-377.7338 207.7443,0 376.1473,169.1151 376.1473,377.7338 0,208.6185 -168.403,377.7337 -376.1473,377.7337 -207.7442,0 -376.1512,-169.1152 -376.1512,-377.7337 z"
         style="fill:none;stroke:#dc0067;stroke-width:17.58645439;stroke-linecap:butt;stroke-linejoin:miter;stroke-miterlimit:3.8636899;stroke-dasharray:none;stroke-opacity:1"
         id="path5716" /></clipPath><clipPath
       clipPathUnits="userSpaceOnUse"
       id="clipPath5785"><path
         inkscape:connector-curvature="0"
         d="m 7190.6335,-1237.1418 c 0,-238.6578 192.6559,-432.1238 430.3134,-432.1238 237.6575,0 430.309,193.466 430.309,432.1238 0,238.65774 -192.6515,432.12391 -430.309,432.12391 -237.6575,0 -430.3134,-193.46617 -430.3134,-432.12391 z"
         style="fill:none;stroke:#dc0067;stroke-width:20.11874008;stroke-linecap:butt;stroke-linejoin:miter;stroke-miterlimit:3.8636899;stroke-dasharray:none;stroke-opacity:1"
         id="path5787" /></clipPath><clipPath
       clipPathUnits="userSpaceOnUse"
       id="clipPath6157"><path
         id="path6159"
         style="fill:none;stroke:#dc0067;stroke-width:20.11874008;stroke-linecap:butt;stroke-linejoin:miter;stroke-miterlimit:3.8636899;stroke-dasharray:none;stroke-opacity:1"
         d="m 7348.4339,-1273.7559 c 0,-238.6578 192.6559,-432.1238 430.3134,-432.1238 237.6575,0 430.309,193.466 430.309,432.1238 0,238.6577 -192.6515,432.12382 -430.309,432.12382 -237.6575,0 -430.3134,-193.46612 -430.3134,-432.12382 z"
         inkscape:connector-curvature="0" /></clipPath></defs><g
     inkscape:groupmode="layer"
     id="layer2"
     inkscape:label="Layer 2"
     style="display:inline"
     transform="translate(-6408.2417,5048.9797)">
<g
   id="g865"><g
     transform="translate(12409.724,106.06602)"
     id="g935"><g
       style="display:inline"
       transform="matrix(1.1005733,0,0,1.1005733,-13386.82,-3039.5928)"
       id="g5510"
       clip-path="url(#clipPath5551)"
       inkscape:export-filename="/home/dunji/Dokumente/Arbeit/Digitalität &amp; SozArb/FFL-03.png"
       inkscape:export-xdpi="96"
       inkscape:export-ydpi="96"><path
         sodipodi:nodetypes="cccccc"
         inkscape:connector-curvature="0"
         id="path5484"
         d="m 7617.6728,-1497.952 5.0562,999.30453 317.0884,2.05399 -5.5255,-773.24602 c -143.2926,29.1874 -226.3879,-174.4257 -265.5495,-245.0725 -14.1093,8.8004 -31.5499,14.0028 -51.0696,16.96 z"
         style="display:inline;fill:#dc0067;fill-opacity:1;stroke:none;stroke-width:2.49622917;stroke-linecap:butt;stroke-linejoin:miter;stroke-miterlimit:4;stroke-dasharray:none;stroke-opacity:1" /><path
         inkscape:connector-curvature="0"
         id="path5486"
         d="m 7668.7424,-1514.912 4.8635,1016.59412"
         style="fill:#dc0067;fill-opacity:1;stroke:none;stroke-width:2.49622917;stroke-linecap:butt;stroke-linejoin:miter;stroke-miterlimit:4;stroke-dasharray:none;stroke-opacity:1" /><path
         sodipodi:nodetypes="ccccc"
         inkscape:connector-curvature="0"
         id="path5488"
         d="m 7721.3973,-1317.8627 v 32.0967 c 24.8987,5.8538 49.6918,12.0773 75.0006,16.4952 l -0.1624,-31.2028 c -25.0652,-4.9628 -49.9893,-10.9129 -74.8382,-17.3891 z"
         style="fill:#009ee0;fill-opacity:1;stroke:none;stroke-width:2.49622917;stroke-linecap:butt;stroke-linejoin:miter;stroke-miterlimit:4;stroke-dasharray:none;stroke-opacity:1" /><path
         sodipodi:nodetypes="ccccc"
         inkscape:connector-curvature="0"
         id="path5490"
         d="m 7723.6726,-1264.9642 c 45.9765,11.7109 96.4109,19.977 149.1124,26.4914 l 5.053,741.47784 -150.9939,-0.97811 z"
         style="fill:#ffb400;fill-opacity:1;stroke:none;stroke-width:2.49622917;stroke-linecap:butt;stroke-linejoin:miter;stroke-miterlimit:4;stroke-dasharray:none;stroke-opacity:1" /><path
         sodipodi:nodetypes="ccccc"
         inkscape:connector-curvature="0"
         id="path5492"
         d="m 7624.1723,-1430.7567 c 14.6334,-2.1115 29.1451,-7.2787 42.6052,-12.3238 l 3.6972,925.1688 -41.373,1.2324 z"
         style="display:inline;fill:#ffb400;fill-opacity:1;stroke:none;stroke-width:2.70420408;stroke-linecap:butt;stroke-linejoin:miter;stroke-miterlimit:4;stroke-dasharray:none;stroke-opacity:1" /><g
         id="g5508"><path
           style="fill:#dc0067;fill-opacity:1;stroke:#009ee0;stroke-width:2.49622917;stroke-linecap:butt;stroke-linejoin:miter;stroke-miterlimit:4;stroke-dasharray:none;stroke-opacity:1"
           d="m 7652.9785,-1612.096 -0.2217,105.1602"
           id="path5494"
           inkscape:connector-curvature="0" /><path
           style="fill:#dc0067;fill-opacity:1;stroke:#009ee0;stroke-width:2.49622917;stroke-linecap:butt;stroke-linejoin:miter;stroke-miterlimit:4;stroke-dasharray:none;stroke-opacity:1"
           d="m 7644.5278,-1597.7947 16.739,-4.8754"
           id="path5496"
           inkscape:connector-curvature="0" /><path
           style="fill:#dc0067;fill-opacity:1;stroke:#009ee0;stroke-width:2.49622917;stroke-linecap:butt;stroke-linejoin:miter;stroke-miterlimit:4;stroke-dasharray:none;stroke-opacity:1"
           d="m 7645.0153,-1583.3309 15.7639,-5.363"
           id="path5498"
           inkscape:connector-curvature="0" /><path
           style="fill:#dc0067;fill-opacity:1;stroke:#009ee0;stroke-width:2.49622917;stroke-linecap:butt;stroke-linejoin:miter;stroke-miterlimit:4;stroke-dasharray:none;stroke-opacity:1"
           d="m 7645.0153,-1568.5419 16.0889,-4.8756"
           id="path5500"
           inkscape:connector-curvature="0" /><path
           style="fill:#dc0067;fill-opacity:1;stroke:#009ee0;stroke-width:2.49622917;stroke-linecap:butt;stroke-linejoin:miter;stroke-miterlimit:4;stroke-dasharray:none;stroke-opacity:1"
           d="m 7645.1777,-1554.0782 15.439,-4.5504"
           id="path5502"
           inkscape:connector-curvature="0" /><path
           style="fill:#dc0067;fill-opacity:1;stroke:#009ee0;stroke-width:2.49622917;stroke-linecap:butt;stroke-linejoin:miter;stroke-miterlimit:4;stroke-dasharray:none;stroke-opacity:1"
           d="m 7644.5278,-1538.9642 15.7639,-4.388"
           id="path5504"
           inkscape:connector-curvature="0" /><path
           style="fill:#dc0067;fill-opacity:1;stroke:#009ee0;stroke-width:2.49622917;stroke-linecap:butt;stroke-linejoin:miter;stroke-miterlimit:4;stroke-dasharray:none;stroke-opacity:1"
           d="m 7645.0153,-1523.5254 15.6014,-4.8754"
           id="path5506"
           inkscape:connector-curvature="0" /></g></g><path
       id="path5589"
       style="fill:none;stroke:#dc0067;stroke-width:22.14214897;stroke-linecap:butt;stroke-linejoin:miter;stroke-miterlimit:3.8636899;stroke-dasharray:none;stroke-opacity:1"
       d="m -5990.4112,-4342.108 c 0,-244.813 197.6251,-443.2714 441.4143,-443.2714 243.7868,0 441.4134,198.4584 441.4134,443.2714 0,244.8179 -197.6266,443.2733 -441.4134,443.2733 -243.7892,0 -441.4143,-198.4554 -441.4143,-443.2733 z"
       inkscape:connector-curvature="0"
       inkscape:export-filename="/home/dunji/Dokumente/Arbeit/Digitalität &amp; SozArb/FFL-03.png"
       inkscape:export-xdpi="96"
       inkscape:export-ydpi="96" /><path
       id="path5591"
       style="fill:#ffb400;fill-opacity:1;fill-rule:nonzero;stroke:none;stroke-width:0.49811369"
       d="m -5475.6934,-4345.4948 -110.3695,-110.8702 h -103.9439 l 73.5784,73.9151 -147.2723,0.01 v 73.93 l 147.2723,-0.02 -73.5784,73.9151 h 103.9439 l 110.3695,-110.8751"
       inkscape:connector-curvature="0"
       inkscape:export-filename="/home/dunji/Dokumente/Arbeit/Digitalität &amp; SozArb/FFL-03.png"
       inkscape:export-xdpi="96"
       inkscape:export-ydpi="96" /><path
       id="path5597"
       style="fill:none;stroke:#dc0067;stroke-width:22.14214897;stroke-linecap:butt;stroke-linejoin:miter;stroke-miterlimit:3.8636899;stroke-dasharray:none;stroke-opacity:1"
       d="m -5175.007,-4467.971 c 0,-262.6604 212.032,-475.584 473.5915,-475.584 261.5595,0 473.5866,212.9236 473.5866,475.584 0,262.6603 -212.0271,475.584 -473.5866,475.584 -261.5595,0 -473.5915,-212.9237 -473.5915,-475.584 z"
       inkscape:connector-curvature="0"
       inkscape:export-filename="/home/dunji/Dokumente/Arbeit/Digitalität &amp; SozArb/FFL-03.png"
       inkscape:export-xdpi="96"
       inkscape:export-ydpi="96" /><path
       id="path5599"
       style="fill:#ffb400;fill-opacity:1;fill-rule:nonzero;stroke:none;stroke-width:0.53081572"
       d="m -4666.436,-4623.3185 199.1462,-200.0485 h 187.5477 l -132.757,133.3674 h 265.7529 v 133.3515 l -265.7529,0.021 132.757,133.3675 h -187.5477 l -199.1462,-200.0538"
       inkscape:connector-curvature="0"
       inkscape:export-filename="/home/dunji/Dokumente/Arbeit/Digitalität &amp; SozArb/FFL-03.png"
       inkscape:export-xdpi="96"
       inkscape:export-ydpi="96" /><path
       id="path5601"
       style="fill:none;stroke:#dc0067;stroke-width:132.99934387;stroke-linecap:butt;stroke-linejoin:miter;stroke-miterlimit:3.8636899;stroke-dasharray:none;stroke-opacity:1"
       d="m -5319.3903,-4467.971 c 0,-342.7371 276.6723,-620.575 617.9748,-620.575 341.3025,0 617.9748,277.8379 617.9748,620.575 0,342.741 -276.6723,620.5779 -617.9748,620.5779 -341.3025,0 -617.9748,-277.8369 -617.9748,-620.5779 z"
       inkscape:connector-curvature="0"
       inkscape:export-filename="/home/dunji/Dokumente/Arbeit/Digitalität &amp; SozArb/FFL-03.png"
       inkscape:export-xdpi="96"
       inkscape:export-ydpi="96" /></g></g>

</g><g
     transform="rotate(1.1575294,-255420.42,-393579.47)"
     id="g4652"
     style="fill:#ffb400;fill-opacity:1" /><g
     style="fill:#ffb400;fill-opacity:1"
     id="g4699"
     transform="rotate(1.1575294,-252690.93,-123378.08)" /></svg>